<svg version="1.1" id="Layer_1" xmlns="http://www.w3.org/2000/svg" xmlns:xlink="http://www.w3.org/1999/xlink" x="0px" y="0px"
	 width="100%" viewBox="0 0 992 976" enable-background="new 0 0 992 976" xml:space="preserve">
<path fill="#00325c" opacity="1.000000" stroke="none" 
	d="
M343.468658,977.000000 
	C338.178192,973.553284 332.339447,972.559021 326.965057,970.486938 
	C200.230194,921.622681 107.035500,836.169250 48.070721,713.859131 
	C24.998791,666.001160 10.849553,615.301086 4.582901,562.480774 
	C3.369516,552.253357 2.349333,542.002991 1.120015,531.381592 
	C1.000000,511.312439 1.000000,491.624878 1.000000,471.468658 
	C2.887058,463.024750 2.624635,454.820312 3.509239,446.736176 
	C8.977837,396.760040 21.366899,348.578064 41.722088,302.647278 
	C93.742073,185.265961 177.936264,99.160660 294.535370,45.216896 
	C340.595551,23.907476 389.102356,10.717443 439.513428,4.532857 
	C450.409271,3.196123 461.332275,2.300092 472.627197,1.158779 
	C492.020905,1.000000 511.041779,1.000000 530.531372,1.000001 
	C539.088379,1.849660 547.173096,2.735960 555.265808,3.542478 
	C586.321777,6.637517 616.747864,12.919297 646.547791,22.091730 
	C734.890198,49.283581 810.237610,97.068352 872.452271,165.434006 
	C933.049133,232.021927 971.946472,309.749878 991.101685,397.546722 
	C991.596619,399.815125 992.159790,402.068634 992.845520,404.664551 
	C993.000000,436.020905 993.000000,467.041779 993.000000,498.531342 
	C991.384216,495.185699 991.829956,491.124695 991.727844,487.165466 
	C989.547913,402.661133 967.196289,323.756653 923.802063,251.352875 
	C857.742493,141.131638 762.591858,67.535904 639.672974,30.031263 
	C609.045166,20.686195 577.674744,15.016541 545.752808,12.102227 
	C518.296509,9.595606 490.827576,9.278412 463.421265,11.496985 
	C382.131409,18.077507 306.794373,42.890564 237.805878,86.599380 
	C203.429779,108.378937 172.199265,134.023621 144.361511,163.678482 
	C97.100327,214.024658 61.629066,271.682800 38.414085,336.765686 
	C24.600792,375.490997 15.912642,415.343597 12.093344,456.321320 
	C10.031388,478.444366 9.403442,500.607758 10.529112,522.701782 
	C14.953650,609.544128 39.297760,690.352051 86.350800,763.769592 
	C151.478699,865.389526 242.185547,933.819763 356.962128,970.608887 
	C363.446533,972.687317 370.026764,974.466797 376.781189,976.692749 
	C365.979095,977.000000 354.958221,977.000000 343.468658,977.000000 
z"/>
<path fill="#00325c" opacity="1.000000" stroke="none" 
	d="
M993.000000,596.531372 
	C990.084412,608.940613 987.480957,620.967651 984.202209,632.807678 
	C964.115417,705.344543 929.775391,770.325745 880.617859,827.409668 
	C822.946716,894.380066 752.389771,942.610229 669.378540,972.742615 
	C665.784851,974.047058 662.176941,975.312439 658.287842,976.798035 
	C647.312439,977.000000 636.624878,977.000000 625.468628,977.000000 
	C629.882690,973.948425 635.614868,973.451355 640.958862,971.859070 
	C711.061829,950.971436 773.501160,916.304749 827.935669,867.484009 
	C898.688232,804.028076 947.095337,726.407410 973.583191,635.172913 
	C981.758972,607.012390 987.038391,578.276672 989.926270,549.049988 
	C991.352356,534.617798 991.004150,520.119324 992.805786,505.363007 
	C993.000000,535.354248 993.000000,565.708435 993.000000,596.531372 
z"/>
<path fill="#00325c" opacity="1.000000" stroke="none" 
	d="
M222.441177,476.714111 
	C224.442490,469.407379 226.527832,462.559448 228.179764,455.608521 
	C229.432312,450.338043 228.943192,445.385834 226.207596,440.228302 
	C222.371033,432.995026 220.943665,425.144928 225.787354,417.422455 
	C227.539062,414.629669 226.830505,411.255768 227.416016,408.172791 
	C229.796570,395.638275 235.484344,385.256622 244.845505,376.398163 
	C255.497467,366.318207 265.917145,356.013794 277.434753,346.903809 
	C279.654541,345.148041 281.751678,342.991852 284.286438,341.930481 
	C289.668304,339.676880 289.901459,336.120087 287.915558,331.520020 
	C287.390442,330.303650 287.334564,328.787140 286.568298,327.788086 
	C281.089050,320.644379 283.021332,313.732544 287.159882,306.965179 
	C289.312592,303.445068 289.831238,300.172089 288.165466,296.174103 
	C284.009796,286.199982 288.996826,278.940918 296.104248,272.456909 
	C297.774017,270.933594 299.882446,270.727264 302.202911,271.129883 
	C311.249573,272.699493 316.191772,267.786743 313.109619,259.334503 
	C309.594879,249.695908 313.319519,247.534073 321.504822,245.491852 
	C325.397583,244.520615 329.566071,243.749573 328.804413,238.096817 
	C325.657013,236.308762 322.876953,237.912979 320.058594,238.672485 
	C314.754669,240.101776 313.485504,238.947281 314.730133,233.756042 
	C314.768982,233.594116 314.801971,233.430725 314.843719,233.269577 
	C316.959869,225.101471 316.955170,225.051315 308.756714,225.830399 
	C306.032318,226.089294 304.521271,225.213699 305.952454,222.559708 
	C307.919617,218.911591 310.135101,215.323318 312.750061,212.122757 
	C314.729980,209.699463 317.441864,208.678268 319.546326,212.446655 
	C320.025757,213.305145 320.565613,214.201721 322.162750,214.058640 
	C323.569794,211.869705 323.244781,209.117920 323.570129,206.578384 
	C324.190918,201.732483 325.408020,197.097916 327.728882,192.799179 
	C329.074585,190.306656 330.997711,188.445435 334.122833,189.058533 
	C337.255737,189.673187 337.959747,192.447479 337.793854,194.860229 
	C337.346741,201.364014 337.737518,207.803085 338.289185,214.262665 
	C338.658295,218.585236 339.155792,222.904404 340.713654,226.954498 
	C342.275146,231.013977 344.483002,231.422836 347.251495,228.151276 
	C351.174469,223.515549 354.394989,218.329727 354.594666,212.090836 
	C354.796417,205.785065 357.488800,201.700104 363.413330,199.644882 
	C364.664978,199.210678 365.880432,198.633041 367.045105,197.997849 
	C368.340149,197.291534 368.894867,196.086731 368.700714,194.632599 
	C368.491882,193.068390 367.361420,192.583755 365.949921,192.195038 
	C359.545197,190.431305 357.396301,186.214142 359.538483,179.851791 
	C360.511688,176.961288 361.836121,174.124878 364.256012,172.320328 
	C369.433014,168.459778 372.798767,163.058426 377.012726,158.377197 
	C387.253632,147.000748 400.229309,139.504807 414.400818,134.248611 
	C421.847260,131.486725 428.352417,134.084747 432.518921,140.020462 
	C435.961365,144.924683 435.695618,147.152832 431.191681,151.147980 
	C425.838959,155.896118 424.904419,159.793854 427.952789,165.011749 
	C430.198120,164.513519 430.808136,162.436752 431.801636,160.823593 
	C433.548065,157.987839 435.285187,155.127762 436.757599,152.145294 
	C441.384064,142.774170 447.844940,136.017273 459.095734,135.563721 
	C460.338684,135.513611 461.553711,134.770447 462.687714,134.381012 
	C462.869415,133.025299 461.944763,132.770447 461.282196,132.373108 
	C453.809509,127.891777 451.082306,117.469635 455.387024,109.906883 
	C456.239868,108.408585 457.332977,107.185204 458.879791,106.450447 
	C461.558990,105.177757 463.111450,105.907242 462.967010,109.043571 
	C462.867828,111.196922 462.302399,113.360168 462.440918,115.486710 
	C462.750549,120.239632 466.283325,121.847595 470.048340,119.126945 
	C480.569733,111.524017 480.348145,111.624222 485.662384,123.377136 
	C487.905121,128.337234 493.376221,128.710434 497.886902,130.583252 
	C499.265869,127.068741 497.107239,125.531586 495.791290,123.787712 
	C492.087524,118.879486 491.941528,116.288445 495.486511,111.191299 
	C498.112854,107.415054 501.591339,104.522163 505.726013,102.617638 
	C514.311951,98.662766 523.529358,97.287209 532.860474,96.758865 
	C536.770630,96.537453 539.344055,98.453979 540.448425,102.535133 
	C541.744080,107.323189 542.980835,107.669510 547.030640,104.714989 
	C551.213562,101.663307 555.307861,98.524643 560.424377,97.130936 
	C561.375183,96.871948 562.548767,96.434280 562.306641,95.181015 
	C561.407471,90.526215 565.041199,89.904625 567.950073,89.120361 
	C572.626770,87.859489 577.328796,86.040222 582.693420,87.122131 
	C581.965515,91.477699 576.848083,92.326164 576.634155,96.430901 
	C578.600403,98.470001 581.018311,97.731575 583.191650,97.332153 
	C590.238342,96.037102 597.131775,96.396957 603.855286,98.868576 
	C610.073730,101.154533 616.159180,101.419266 622.262085,98.441711 
	C626.741638,96.256180 631.441895,97.166603 635.988770,98.121910 
	C640.022827,98.969482 643.047913,99.150406 642.738281,93.623291 
	C642.588440,90.948936 644.602356,89.832275 646.855774,89.374435 
	C655.662781,87.585129 662.894470,83.720612 668.295288,76.056488 
	C671.696655,71.229790 679.694580,70.792427 685.748169,74.303436 
	C689.946228,76.738228 694.158691,79.021072 698.750549,80.592178 
	C701.654114,81.585640 703.409607,83.439789 702.299866,86.644112 
	C701.090698,90.135231 702.943115,91.594276 705.750427,92.580772 
	C707.948425,93.353172 710.193481,93.992462 712.386108,94.779076 
	C715.881226,96.032997 719.077454,97.615402 721.006775,101.136581 
	C722.480530,103.826286 725.140503,105.462029 727.608093,107.147972 
	C735.988586,112.873718 744.193359,118.880913 753.910950,122.351257 
	C757.506409,123.635262 760.950867,125.461403 763.392944,128.615402 
	C764.456482,129.989044 765.114441,131.553909 764.197327,133.243607 
	C763.296997,134.902405 761.680237,135.303650 759.919189,135.242966 
	C756.907410,135.139191 754.539734,133.635498 752.409058,131.687088 
	C741.190918,121.428406 727.461243,115.254036 714.276672,108.188988 
	C711.451721,106.675247 708.760437,107.770996 706.027588,108.433586 
	C702.300232,109.337296 702.325012,111.715370 702.862183,114.953537 
	C703.248474,117.281845 700.619080,117.863853 698.797119,118.663910 
	C696.558960,119.646774 693.739624,118.976830 691.447388,121.550407 
	C694.700317,127.457512 699.509338,132.068787 705.795776,134.391724 
	C710.975952,136.305862 715.584106,138.833405 719.106689,142.828461 
	C725.719666,150.328354 733.972656,150.827133 742.869812,149.342270 
	C746.017639,148.816925 749.142944,148.537430 752.315063,148.979431 
	C756.988464,149.630615 760.217346,151.883530 761.917175,156.534302 
	C764.799561,164.420486 771.560547,167.637451 779.005127,169.645218 
	C782.710388,170.644516 784.213623,168.847229 783.842163,165.042664 
	C783.611023,162.675201 782.896423,160.500259 782.192688,158.279770 
	C781.742981,156.860855 781.197876,155.174057 782.922119,154.285309 
	C784.651367,153.394058 786.202759,154.343231 787.360352,155.624374 
	C788.623779,157.022766 789.180054,158.846802 789.244751,160.683716 
	C789.500183,167.927246 793.245422,173.059204 798.622314,177.531555 
	C810.562622,187.463181 823.220154,196.361847 836.336182,204.646790 
	C843.395569,209.105972 843.420898,209.399155 838.692566,216.318649 
	C836.559937,219.439484 835.951233,222.514526 837.821411,226.099503 
	C840.054749,230.380798 841.773743,234.912506 842.862061,239.646774 
	C843.272827,241.433670 843.715576,243.243591 842.326172,244.932968 
	C839.686707,245.722137 838.896667,243.551178 837.848328,241.980469 
	C835.814453,238.932877 833.968689,235.759018 831.913330,232.726730 
	C830.500549,230.642487 828.833923,228.559402 826.119507,228.348129 
	C822.239807,228.046158 820.713318,225.540848 819.727661,222.325104 
	C819.581299,221.847809 819.394043,221.366196 819.353149,220.875946 
	C818.049377,205.225388 807.475586,195.433334 797.053955,185.538712 
	C792.865479,181.562042 787.923340,180.273102 782.300476,181.274368 
	C779.086792,181.846634 777.677856,183.560013 779.678833,186.472214 
	C785.627686,195.130524 789.212585,205.525894 799.127441,211.277496 
	C803.710510,213.936111 805.615845,218.600922 805.744690,222.759232 
	C803.898010,223.982666 802.590881,222.994156 801.513000,221.592377 
	C800.297729,220.011993 799.187500,218.347565 798.085449,216.683975 
	C794.128113,210.710052 790.327942,209.647675 784.186523,213.143311 
	C781.765625,214.521286 779.462402,215.427475 776.628601,214.770844 
	C774.240540,214.217514 771.621704,214.041153 771.353333,217.421539 
	C771.095459,220.669891 771.994263,223.418716 776.044617,223.708405 
	C779.696533,223.969620 783.350037,224.274780 786.982788,224.722961 
	C792.239624,225.371567 796.519531,227.207840 798.142578,233.047684 
	C799.220459,236.925964 803.311096,238.527069 805.745728,241.468231 
	C810.715759,247.472458 814.705200,254.554947 821.615051,258.623840 
	C829.427612,263.224274 834.366394,269.288574 835.520508,278.584473 
	C836.144897,283.613556 840.473511,285.025665 845.013000,284.631836 
	C856.574036,283.628876 862.514648,291.158661 867.778564,299.531342 
	C869.191895,301.779419 870.142334,304.626465 868.222351,308.190887 
	C861.480957,301.646606 856.202698,293.052185 844.999268,294.092560 
	C845.028564,301.416565 843.855225,308.597626 847.290649,315.551331 
	C849.713928,320.456390 850.338928,325.776306 847.957581,331.022949 
	C847.181702,332.732452 846.060669,334.319366 843.865967,334.100891 
	C841.975159,333.912689 841.051270,332.427795 840.486816,330.805084 
	C840.053223,329.558746 839.841248,328.235748 839.523743,326.948578 
	C838.739929,323.771240 837.280334,320.952698 833.473999,321.920197 
	C829.756226,322.865204 828.251648,325.947418 828.721863,329.656799 
	C829.036682,332.140717 830.700867,334.220398 831.609924,336.513885 
	C834.042969,342.651825 835.316833,349.676819 844.634827,348.336243 
	C845.629944,348.193085 846.986633,350.023193 848.060364,351.057587 
	C853.232605,356.040497 857.521729,361.810669 862.301453,367.130646 
	C868.183044,373.677063 870.003723,381.350220 870.096252,389.671875 
	C870.137939,393.415985 870.616516,398.112671 866.317566,399.723236 
	C861.494263,401.530273 856.095520,402.283173 851.709717,398.179779 
	C849.536743,396.146698 847.634399,393.778015 845.862427,391.374756 
	C843.824951,388.611420 841.379333,386.502380 837.893433,387.575348 
	C834.660522,388.570465 834.750427,391.960175 834.302917,394.670319 
	C833.636353,398.707214 834.930786,402.212433 837.660339,405.239777 
	C843.031006,411.196442 847.775024,417.476166 851.019165,424.990051 
	C853.350159,430.388855 858.820557,433.547729 862.743286,437.843506 
	C867.084900,442.598053 870.677795,447.653503 870.807739,454.330780 
	C868.575562,456.312714 866.815735,454.898621 865.156982,453.974304 
	C857.791931,449.870239 852.114319,444.076233 848.944580,436.231079 
	C846.034668,429.029083 841.565979,423.289062 835.146362,418.944122 
	C825.390381,412.341095 822.165466,402.031647 819.770142,391.305969 
	C819.335938,389.361420 819.130005,387.366974 818.772156,385.404053 
	C817.022705,375.810181 815.992371,374.646332 806.511780,373.719543 
	C800.692627,373.150726 797.107300,369.830383 794.417480,365.170593 
	C789.678284,356.960266 782.354797,350.437439 778.975159,341.331482 
	C778.261414,339.408478 776.187866,338.881714 774.421875,338.639008 
	C768.440857,337.816956 762.460632,337.683105 756.683899,339.926331 
	C747.621399,343.445526 747.177612,349.546967 747.811279,361.454681 
	C748.120544,367.266022 747.409668,371.883484 743.811340,376.216156 
	C742.641541,377.624573 741.526245,379.086670 740.488403,380.594727 
	C736.872986,385.848450 737.302063,389.395203 742.553406,392.825775 
	C746.783020,395.588867 748.893372,399.149811 748.356873,404.102997 
	C747.488403,412.121368 749.934753,419.964172 749.429138,427.969879 
	C749.209473,431.447571 752.115540,431.150665 754.042053,430.514496 
	C757.777527,429.281067 759.701660,430.962463 761.202332,433.941223 
	C764.607605,440.700653 766.732544,447.830383 767.258057,455.394440 
	C767.385742,457.232819 767.359497,459.280457 765.290649,460.112549 
	C763.199341,460.953674 761.807434,459.386322 760.603271,458.029663 
	C756.138000,452.999054 752.268188,447.581268 750.922241,440.816559 
	C750.232666,437.351227 748.431274,436.515381 745.698608,438.512329 
	C741.297119,441.728790 737.925232,439.929626 734.695618,436.715363 
	C726.310120,428.369293 721.442322,417.592529 714.795654,408.048431 
	C707.680725,397.831970 702.070312,387.116974 698.868469,374.992737 
	C697.061096,368.148834 693.230408,366.655792 686.316650,368.211884 
	C680.776245,369.458862 675.212402,370.240387 669.497131,369.367676 
	C664.087158,368.541534 659.324707,366.317017 656.849915,361.443542 
	C652.419922,352.719727 644.925659,350.167419 636.124390,350.429565 
	C622.115295,350.846863 608.174194,349.198822 594.550598,346.947113 
	C584.123718,345.223694 573.875305,344.383453 563.420410,344.218170 
	C557.522339,344.124908 551.883057,342.843842 546.966492,339.198303 
	C545.274597,337.943787 542.958008,336.244904 541.187317,338.388916 
	C539.575317,340.340790 541.915466,341.967468 543.075867,343.472626 
	C544.718323,345.603088 546.748718,347.371429 549.062012,348.717773 
	C554.643738,351.966278 559.009583,356.390869 562.735657,361.647766 
	C568.221680,369.387756 577.647217,369.908325 584.390442,363.083710 
	C584.974182,362.492889 585.486694,361.830078 586.015991,361.187256 
	C592.196594,353.681213 602.413208,352.658966 609.858521,358.738373 
	C611.144470,359.788391 611.548523,361.128571 611.868591,362.613922 
	C612.147705,363.909515 612.130615,365.564148 612.932007,366.403870 
	C617.949585,371.660889 615.600037,376.748688 612.956970,381.951630 
	C609.739502,388.285339 607.813232,394.905182 608.415344,402.139771 
	C608.874390,407.655640 606.662903,412.270508 601.727295,414.562256 
	C591.043518,419.523041 583.823303,428.190674 576.352417,436.721344 
	C573.618469,439.843079 570.606323,442.754303 567.494568,445.505310 
	C560.610229,451.591492 554.712646,452.035767 547.856323,446.105469 
	C540.185669,439.470886 532.964417,432.295868 525.809021,425.096161 
	C522.668640,421.936310 521.212402,417.975769 522.268311,413.192474 
	C523.377991,408.165710 520.171265,404.709106 516.908875,401.504333 
	C511.565033,396.254913 504.788391,392.715332 499.893219,386.862915 
	C495.516754,381.630493 490.708191,376.752502 485.978058,371.825806 
	C483.553741,369.300751 480.838043,367.056305 477.662170,365.494629 
	C475.847656,364.602356 473.758545,363.641083 472.139374,365.520844 
	C470.467285,367.462097 472.451721,369.028992 473.501678,370.269806 
	C478.989380,376.755096 484.663239,383.082428 490.240753,389.492218 
	C493.962250,393.768921 497.551453,398.157043 500.570496,402.969482 
	C502.524872,406.084747 504.092438,409.308563 504.445007,413.118439 
	C505.386902,423.297333 508.673950,427.370941 518.772583,428.453186 
	C525.555115,429.180054 528.789429,432.338379 531.178772,438.318359 
	C534.943726,447.741211 539.414307,456.889771 543.778748,466.062866 
	C547.045166,472.928284 550.725464,474.484741 557.938049,472.018372 
	C565.559814,469.412109 571.912231,464.949890 576.019958,457.838715 
	C578.945984,452.773346 583.196472,449.557861 588.773865,448.133453 
	C595.957336,446.298950 601.341003,451.324005 598.666382,458.198212 
	C595.081482,467.411987 595.151550,476.754120 595.451660,486.225311 
	C595.700806,494.087738 592.941406,500.519379 587.186401,505.777924 
	C581.580383,510.900299 577.136780,516.867126 574.100952,523.861450 
	C567.477600,539.121216 559.760193,553.852295 552.284729,568.696960 
	C549.477356,574.271851 549.520325,580.090027 550.852356,585.760254 
	C553.782593,598.233765 556.217773,610.760010 557.806152,623.482544 
	C558.543945,629.392029 557.420166,635.107117 557.180542,640.907898 
	C557.029114,644.573120 557.432922,647.866577 560.289307,650.497681 
	C563.030457,653.022644 562.397705,655.504333 559.943909,657.766235 
	C558.232422,659.343872 556.548828,661.055664 554.565735,662.217590 
	C543.031982,668.975281 538.245056,679.719910 536.394287,692.292236 
	C535.254639,700.033508 533.863098,707.680054 530.892883,715.025513 
	C529.002563,719.700378 530.722168,724.938721 529.535461,729.869995 
	C528.867065,732.647217 528.527161,735.662598 526.796936,737.822632 
	C522.419678,743.287415 520.462952,750.172974 515.907959,755.510132 
	C512.683716,759.287903 510.990570,763.599121 511.225677,768.809143 
	C511.470581,774.235107 508.653076,778.089111 503.322601,779.519714 
	C493.599640,782.129150 484.974884,786.145996 478.451416,794.263184 
	C475.655853,797.741699 471.064941,798.732727 466.665588,798.965759 
	C462.070435,799.209229 458.181061,796.344604 457.348328,790.904724 
	C455.745117,780.431763 449.473755,774.638306 439.912659,771.935669 
	C427.048828,768.299500 424.816376,757.623535 423.888641,746.927673 
	C422.216797,727.652954 415.201416,711.192444 401.151642,697.851196 
	C397.474426,694.359375 397.180756,688.846558 393.975983,685.431641 
	C386.658508,677.634338 385.139282,669.621704 390.741180,660.372803 
	C391.315460,659.424744 391.648560,658.108765 391.552917,657.010498 
	C390.369293,643.419983 391.881012,629.678894 389.498322,616.180237 
	C388.416443,610.050964 385.266479,605.128601 379.359894,602.138000 
	C374.742065,599.799866 370.987549,596.546936 371.791229,590.479492 
	C371.896118,589.687622 371.784454,588.724854 371.414124,588.033569 
	C366.068054,578.054565 364.199371,567.031738 361.642517,556.198364 
	C360.795532,552.609802 358.884979,549.440613 356.101959,546.865662 
	C350.450531,541.636719 345.629486,535.686157 341.138275,529.453979 
	C339.376373,527.009094 337.364410,524.793945 334.948975,522.966064 
	C327.780823,517.541443 322.284912,518.276001 317.184906,525.636475 
	C310.401611,535.426270 301.681610,542.506470 290.070770,545.701416 
	C285.842194,546.864929 281.551941,547.148193 277.226562,546.162476 
	C272.466034,545.077454 268.816895,543.109375 266.964325,537.911926 
	C264.030548,529.681458 256.294769,528.217712 248.972488,527.662354 
	C242.990067,527.208557 240.348602,524.044861 238.788559,519.103577 
	C237.285950,514.344177 236.095871,509.485931 234.590027,504.727539 
	C232.813995,499.115417 230.386673,493.781677 225.904129,489.773865 
	C221.955887,486.243774 220.952118,482.069519 222.441177,476.714111 
z"/>
<path fill="#00325c" opacity="1.000000" stroke="none" 
	d="
M32.815918,542.808960 
	C31.914541,528.228027 30.626045,514.121155 30.852741,499.955780 
	C30.991268,491.299835 31.378178,482.647125 31.717930,473.995483 
	C31.878490,469.906982 35.571114,466.460999 39.552082,466.724670 
	C44.202030,467.032654 43.334393,471.042145 44.066227,473.875946 
	C44.796177,476.702393 41.301971,479.796692 43.990719,482.315399 
	C46.085987,484.278168 49.406380,483.565308 52.115585,484.386414 
	C56.362000,485.673462 58.628376,488.814819 60.359993,492.534058 
	C62.187183,496.458557 63.867870,500.452118 65.732018,504.358459 
	C68.043602,509.202545 71.694969,512.281128 77.259285,512.717224 
	C81.626251,513.059448 82.829735,515.224731 81.745361,519.514893 
	C80.678200,523.736938 81.002701,528.055298 82.590073,532.273132 
	C85.464111,539.909668 88.225929,547.486450 85.584785,555.997437 
	C84.449287,559.656494 87.354065,562.317078 90.545647,563.777588 
	C96.597588,566.547119 102.747276,569.113708 108.922318,571.600891 
	C116.100899,574.492126 122.822990,577.889648 127.862793,584.116882 
	C131.062042,588.069824 135.785400,590.113586 140.224197,592.428589 
	C144.208603,594.506714 148.218216,596.555603 152.071213,598.860535 
	C155.093399,600.668457 157.959030,602.964661 159.261871,606.306763 
	C161.748154,612.684692 162.929031,619.445923 168.130859,624.777588 
	C170.692245,627.402893 168.423874,631.830383 167.530624,635.332397 
	C164.689438,646.471436 159.380295,656.801392 156.857834,668.070374 
	C154.974625,676.483521 155.576508,683.969177 159.757751,692.042603 
	C165.604050,703.331116 167.135620,716.108276 167.654221,728.829224 
	C167.749847,731.174805 166.407684,732.750244 164.537094,734.170288 
	C157.387161,739.597595 154.927231,746.089050 158.677643,754.316345 
	C162.336502,762.342712 163.935913,770.636353 165.344818,779.139343 
	C166.259155,784.657532 168.558029,789.592285 172.517120,793.709351 
	C177.574921,798.968689 178.817535,805.748535 179.231766,812.606628 
	C179.721558,820.715454 182.436829,827.496643 189.041748,832.481445 
	C191.964966,834.687622 194.750046,837.100403 197.804504,839.104370 
	C205.005997,843.829224 212.682724,847.802002 217.401855,855.639221 
	C219.623352,859.328613 223.766342,861.449951 227.256760,864.006958 
	C231.986877,867.472168 235.187378,871.886475 236.973114,877.541016 
	C238.456955,882.239624 240.560547,886.742615 242.378601,891.304565 
	C240.833405,892.481079 240.029846,891.259766 239.167618,890.672974 
	C161.346756,837.702454 103.736908,768.156860 67.194809,681.257751 
	C51.880352,644.838989 41.922340,606.974426 35.884277,568.020142 
	C34.611710,559.810181 33.850414,551.520935 32.815918,542.808960 
z"/>
<path fill="#00325c" opacity="1.000000" stroke="none" 
	d="
M220.962296,181.290314 
	C216.536011,181.595947 214.069366,180.121933 213.998627,175.769104 
	C213.947708,172.636108 211.937759,171.835541 209.278946,172.048187 
	C203.473236,172.512543 197.657181,172.914368 191.876892,173.605621 
	C188.125565,174.054245 185.622482,175.877335 186.489914,180.294571 
	C187.307114,184.456146 189.540421,186.425705 193.909714,185.454330 
	C196.183746,184.948776 198.462662,184.403473 200.769333,184.120285 
	C204.708572,183.636658 207.602158,185.070694 208.906296,189.061478 
	C210.208298,193.045639 207.873505,194.757675 204.748718,196.328308 
	C197.545654,199.948868 195.118347,205.017838 196.552872,213.078842 
	C196.959808,215.365601 197.541840,217.636688 198.241074,219.852646 
	C199.606293,224.179138 200.234848,227.863480 194.465927,229.719666 
	C191.558395,230.655182 191.941025,233.972260 192.495514,236.309418 
	C193.365509,239.976303 191.933441,242.403320 189.372986,244.612335 
	C183.728333,249.482300 178.210281,254.263763 173.809143,260.588104 
	C168.761505,267.841553 162.405396,266.504822 158.609314,258.358673 
	C157.182175,255.296143 155.277328,256.071960 153.444443,257.559601 
	C150.322510,260.093506 149.350098,263.887268 149.762482,267.482758 
	C150.210770,271.391205 148.450974,272.539948 145.337662,273.233917 
	C141.929291,273.993622 138.556870,274.917023 135.143021,275.649078 
	C128.230194,277.131409 124.525612,281.651276 123.477715,288.344849 
	C122.978386,291.534424 121.561668,293.438385 118.608879,294.594421 
	C103.224518,300.617706 91.942467,310.734863 86.770065,326.856781 
	C86.176575,328.706604 84.763947,329.825317 83.319054,330.997192 
	C78.535271,334.877045 73.636658,338.634247 69.886543,343.633942 
	C67.745331,346.488647 65.964668,349.369904 66.195457,353.170624 
	C66.345894,355.648010 65.345955,357.910400 63.123444,359.085846 
	C55.403202,363.169098 54.779179,370.158875 55.437263,377.590820 
	C56.306496,387.407227 55.308685,388.786102 43.964653,390.902893 
	C53.639793,349.474823 68.729187,310.681824 89.048035,273.912048 
	C123.815681,210.995148 170.362869,158.581589 229.314240,116.484871 
	C231.278122,121.018852 228.786407,123.604820 227.349060,126.428169 
	C227.123779,126.870712 226.736649,127.235443 226.538040,127.686249 
	C225.360413,130.359192 221.513596,132.282196 223.524719,135.797897 
	C224.576523,137.636581 233.146301,135.249756 235.339233,132.661606 
	C237.078583,130.608780 238.086212,128.126221 239.140320,125.665489 
	C242.592377,117.607010 245.806152,115.787521 254.287933,117.404686 
	C258.101410,118.131760 261.140594,116.708313 264.126984,114.795944 
	C269.147095,111.581200 274.350922,110.168915 280.237152,112.391701 
	C283.453491,113.606270 286.457825,112.259338 289.314087,110.781601 
	C294.194397,108.256645 298.978943,105.527504 303.960968,103.224190 
	C308.016937,101.349007 312.091888,100.850594 316.277130,103.690491 
	C319.673004,105.994766 323.725708,104.924232 327.459198,104.211349 
	C335.623047,102.652550 343.743988,100.870041 351.891144,99.221916 
	C353.189697,98.959236 354.530579,98.843529 355.856842,98.795372 
	C357.737518,98.727089 359.697296,98.942001 360.731720,100.702309 
	C361.838654,102.586082 360.625916,104.280029 359.524902,105.727028 
	C354.232178,112.682983 347.666168,118.387016 340.757690,123.594223 
	C334.582642,128.248596 331.495331,134.804794 328.327423,141.373428 
	C326.163666,145.859924 327.586700,150.158142 329.927979,154.210205 
	C330.761414,155.652603 331.680603,157.045654 332.507477,158.491623 
	C335.369171,163.496017 334.588287,166.025574 329.269806,168.196487 
	C322.898102,170.797348 316.096863,171.700928 309.367859,172.803207 
	C305.524780,173.432770 304.911865,170.544037 304.782257,167.791473 
	C304.587830,163.662704 304.731689,159.518021 304.731689,154.312881 
	C295.938507,159.156693 288.235016,163.378357 282.988556,171.476746 
	C276.126648,182.068741 265.783020,187.726776 253.302353,189.187134 
	C249.823700,189.594162 248.556168,187.032150 250.733444,183.966827 
	C252.840591,181.000259 255.338669,178.250107 257.983582,175.740646 
	C262.331604,171.615280 266.617859,167.305130 271.500732,163.888260 
	C281.389130,156.968658 286.911499,146.586105 293.675659,137.199219 
	C296.775848,132.896957 295.636810,130.808472 290.621399,129.350174 
	C283.183258,127.187454 276.855103,128.156967 272.120697,134.971161 
	C270.807526,136.861191 269.181091,138.732300 267.283630,139.982758 
	C259.632996,145.024628 254.608322,151.924591 249.552139,159.591919 
	C244.844711,166.730408 236.895416,171.906296 230.786957,178.408203 
	C228.539902,180.799988 224.750229,180.993668 220.962296,181.290314 
z"/>
<path fill="#00325c" opacity="1.000000" stroke="none" 
	d="
M896.619507,630.881897 
	C900.247070,619.583557 907.538574,611.100464 914.718201,602.542114 
	C918.035645,598.587585 921.429016,594.689941 924.590271,590.613159 
	C927.375061,587.021851 929.342407,583.002014 929.733826,578.347290 
	C929.816101,577.368591 930.056458,576.352051 930.459290,575.459106 
	C935.955139,563.277344 937.846191,549.575928 946.360962,538.630920 
	C949.090942,535.121887 950.809082,530.834534 952.192078,526.523376 
	C953.291809,523.095093 951.984375,521.560120 948.467651,521.279541 
	C940.625977,520.653870 939.120300,521.601624 936.509644,529.199341 
	C935.827698,531.183899 935.726929,533.921936 933.175903,534.296082 
	C930.408936,534.701904 929.996582,531.785156 928.910400,530.065857 
	C924.292419,522.756042 917.087769,521.432983 909.325745,521.593384 
	C905.339966,521.675842 901.367554,522.274170 897.382202,522.533264 
	C891.191345,522.935852 889.835815,521.140320 891.763000,515.264771 
	C892.066223,514.340454 892.705566,513.461670 892.130371,512.204407 
	C890.554688,510.669281 888.515930,511.505981 886.620972,511.664948 
	C880.505249,512.177917 875.537109,510.312195 871.901123,505.149139 
	C866.713867,497.783508 861.741089,490.299042 858.294861,481.926880 
	C855.619019,475.426605 851.823547,469.979584 845.345459,466.666016 
	C840.885437,464.384674 839.388245,460.077240 838.803955,455.492523 
	C838.265259,451.265289 840.340393,449.710815 844.136780,451.654083 
	C850.121094,454.717255 855.405640,458.909882 859.509155,464.197021 
	C863.404175,469.215546 867.655334,472.740997 874.389160,472.812042 
	C878.522522,472.855591 881.062561,475.703705 882.179443,479.508759 
	C883.394653,483.648712 884.282471,487.885925 885.275818,492.089508 
	C886.125671,495.686218 887.583923,499.017700 889.416565,502.215393 
	C891.455444,505.773041 894.202271,506.599792 897.782471,504.586487 
	C900.683289,502.955261 903.527954,501.215240 906.489197,499.702820 
	C910.435852,497.687073 913.575745,498.421631 915.395203,502.776398 
	C915.459290,502.929718 915.538147,503.077240 915.615967,503.224365 
	C920.677185,512.785950 921.183289,512.840820 927.856323,504.550262 
	C927.960754,504.420593 928.050720,504.277863 928.164795,504.157654 
	C930.736633,501.446228 933.566223,498.626831 937.569580,499.614166 
	C941.714722,500.636475 940.999878,504.751068 941.534790,508.261322 
	C945.562317,507.078674 949.363647,507.952606 953.080444,509.426910 
	C958.452332,511.557617 961.430115,515.481262 961.274231,521.300354 
	C961.132080,526.608643 960.417175,531.900818 960.248779,537.209412 
	C960.062134,543.092529 961.401672,548.497009 966.561401,552.176208 
	C968.596863,553.627625 968.215698,555.596802 967.963196,557.593872 
	C962.229553,602.940796 950.334473,646.594360 932.106873,688.525208 
	C930.462524,692.307739 928.858948,695.799133 923.856750,693.933105 
	C919.214966,692.201355 919.298706,688.253906 920.038086,684.295349 
	C920.920715,679.569519 924.537415,675.073059 921.155945,670.022827 
	C920.796265,669.957764 920.356506,669.734680 920.177429,669.866272 
	C906.643616,679.809998 890.530518,686.590881 881.169250,701.668518 
	C880.324829,703.028503 879.379761,704.853210 877.365295,704.314514 
	C875.264954,703.752869 875.090454,701.643311 874.768799,699.863403 
	C874.277527,697.144043 875.064209,694.559753 875.930298,692.040039 
	C880.152283,679.757019 884.350891,667.429321 890.112000,655.787170 
	C893.987732,647.955139 893.800354,639.278992 896.619507,630.881897 
z"/>
<path fill="#00325c" opacity="1.000000" stroke="none" 
	d="
M971.077393,479.212219 
	C971.139832,483.652161 971.678223,487.632111 970.971924,491.544922 
	C961.994141,493.711823 952.916260,488.636993 950.694946,480.227631 
	C949.487610,475.656921 947.215576,471.608612 944.896179,467.562927 
	C942.963013,464.190826 942.042664,461.124817 945.268555,457.624542 
	C947.909485,454.759155 946.792908,449.729553 943.843506,447.921082 
	C940.714478,446.002502 936.747131,447.802917 936.304932,451.445892 
	C936.043457,453.599884 936.419312,455.723419 936.966309,457.855164 
	C938.242493,462.828949 939.485779,467.714630 937.526917,472.984436 
	C936.304016,476.274323 937.662170,479.889099 938.351257,483.309113 
	C938.874756,485.906952 939.228882,488.434113 935.744080,489.180237 
	C932.484741,489.878113 929.263855,489.988953 927.591187,486.346161 
	C926.102051,483.103088 925.924927,479.664581 926.417358,476.095947 
	C927.216248,470.307281 927.283447,464.550171 924.213501,459.235809 
	C921.308777,459.427399 920.828735,461.635101 920.169678,463.358337 
	C917.854065,469.412720 915.155823,475.406219 913.690125,481.676941 
	C912.112610,488.425995 903.525757,490.077545 898.755920,484.488007 
	C894.822388,479.878448 893.239136,474.235413 892.070007,468.543243 
	C890.294434,459.898926 888.712463,451.049286 889.908142,442.294067 
	C891.041931,433.991669 893.335571,425.798157 895.730469,417.738403 
	C896.915405,413.750885 900.338684,410.906586 904.737305,410.947083 
	C909.165344,410.987823 910.541687,414.816101 911.757263,418.353424 
	C913.937500,424.698212 914.066772,431.414185 915.221863,437.944946 
	C915.509766,439.572296 915.435547,441.274109 917.398987,442.834961 
	C918.345215,433.490265 925.954285,428.228516 929.871948,420.752930 
	C931.137146,418.338593 933.053467,415.531769 936.294617,415.930084 
	C939.752258,416.354980 939.890381,419.840942 940.802673,422.442902 
	C941.792236,425.265228 942.680969,428.125732 943.756592,430.914429 
	C945.376465,435.114380 948.022644,437.753052 952.994568,437.909363 
	C958.787537,438.091461 962.324707,443.232391 967.206909,445.602234 
	C969.719910,446.822052 968.934875,452.603027 969.263367,456.373779 
	C969.912476,463.824371 970.455994,471.284180 971.077393,479.212219 
z"/>
<path fill="#00325c" opacity="1.000000" stroke="none" 
	d="
M586.192993,647.253662 
	C592.540344,644.084167 596.186951,639.267273 598.150146,632.851562 
	C599.291931,629.120178 601.881470,626.175293 605.199158,624.056519 
	C608.273865,622.092773 610.567444,622.963257 611.852783,626.353821 
	C612.141968,627.116943 612.298828,627.964539 612.340210,628.782104 
	C612.788391,637.651062 614.173767,646.570496 610.898560,655.243713 
	C609.585999,658.719482 610.232361,662.161804 611.476624,665.474487 
	C614.428345,673.333069 613.364685,680.800476 608.113770,687.054138 
	C602.998230,693.146545 601.622681,699.683777 602.167969,707.362671 
	C602.813599,716.455078 598.224487,720.970276 589.223572,721.238953 
	C584.822266,721.370361 581.927734,719.404175 580.710876,715.115051 
	C579.553467,711.035522 579.883606,706.932739 580.163391,702.752686 
	C580.801880,693.215637 582.439636,683.704468 578.211670,674.285461 
	C576.319763,670.070862 574.595032,664.666992 580.562500,661.050476 
	C582.546448,659.848083 581.667114,657.027222 582.300049,654.992676 
	C583.142883,652.283081 583.642029,649.487244 586.192993,647.253662 
z"/>
</svg>